<svg xmlns="http://www.w3.org/2000/svg" viewBox="0 0 100 100">
  <circle cx="42" cy="50" r="35" fill="none" stroke="#6FA84A" stroke-width="6.5"/>
  <path d="M25 23h24l9 9v39a3 3 0 01-3 3H25a3 3 0 01-3-3V26a3 3 0 013-3z" fill="#1E1E1E"/>
  <path d="M49 23l9 9H49z" fill="#000" opacity=".35"/>
  <path d="M28 38l4.5 4.5L40 34" fill="none" stroke="#fff" stroke-width="3" stroke-linecap="round" stroke-linejoin="round"/>
  <path d="M43 37h13" stroke="#fff" stroke-width="2.6" stroke-linecap="round"/>
  <path d="M28 51l4.5 4.5L40 47" fill="none" stroke="#fff" stroke-width="3" stroke-linecap="round" stroke-linejoin="round"/>
  <path d="M43 50h13" stroke="#fff" stroke-width="2.6" stroke-linecap="round"/>
  <path d="M28 64l4.5 4.5L40 60" fill="none" stroke="#fff" stroke-width="3" stroke-linecap="round" stroke-linejoin="round"/>
  <path d="M43 63h13" stroke="#fff" stroke-width="2.6" stroke-linecap="round"/>
  <path d="M56 82c3-16 16-27 31-30-1 15-11 27-27 31-3 1-5 0-4-1z" fill="#6FA84A"/>
  <path d="M60 79c7-9 15-15 24-19" stroke="#4A7A32" stroke-width="1.6" stroke-linecap="round" fill="none"/>
</svg>
